<?xml version="1.0" encoding="UTF-8"?>
<svg version="1.1" xmlns="http://www.w3.org/2000/svg" width="512" height="512">
<path d="M0 0 C1.07145264 0.30550781 1.07145264 0.30550781 2.16455078 0.6171875 C35.31728716 10.36666477 64.53371612 33.96697242 81.21630859 64.20458984 C92.03357234 84.69189838 97.43761719 105.84091756 97.375 129 C97.37478851 129.72411072 97.37457703 130.44822144 97.37435913 131.1942749 C97.33954581 143.17170561 96.31264801 154.45336659 93 166 C92.81808105 166.66547852 92.63616211 167.33095703 92.44873047 168.01660156 C83.15677842 201.34805421 59.54642728 224.76874413 35.77027798 248.49117136 C32.76733229 251.48954 29.77021158 254.49372255 26.77229309 257.49711609 C20.918491 263.35975717 15.05936135 269.2170449 9.19822811 275.07235579 C4.43236275 279.83368459 -0.33152287 284.59698594 -5.0940361 289.36166763 C-5.77461301 290.042551 -6.45518991 290.72343438 -7.15639036 291.42495058 C-8.53937082 292.80857054 -9.92234681 294.19219497 -11.3053184 295.5758238 C-24.23665782 308.51284995 -37.17409155 321.44376755 -50.11365883 334.3725635 C-61.19871746 345.44868005 -72.27851096 356.53004079 -83.35449219 367.61523438 C-96.24663376 380.518094 -109.14203255 393.41768398 -122.04260099 406.31211865 C-123.4196033 407.68848392 -124.79660146 409.06485334 -126.17359543 410.44122696 C-126.85094799 411.11827097 -127.52830055 411.79531498 -128.22617895 412.49287548 C-132.98293899 417.24791379 -137.73738498 422.00525821 -142.49092484 426.76351547 C-148.2864135 432.56462969 -154.08548573 438.36213329 -159.88909484 444.15512399 C-162.84589376 447.10668995 -165.80111426 450.0597893 -168.75197029 453.01729774 C-171.45919811 455.73053613 -174.17109278 458.43902142 -176.88660018 461.14397253 C-178.31969594 462.57381728 -179.74794841 464.00851143 -181.17595351 465.44344032 C-200.20799253 484.36194462 -221.90988279 498.28050887 -248 505 C-249.19496094 505.3196875 -250.38992187 505.639375 -251.62109375 505.96875 C-286.34794497 513.6463343 -323.95769027 506.71102704 -354 488 C-358.56300681 484.93898799 -362.8028354 481.54065624 -367 478 C-367.88171875 477.25878906 -368.7634375 476.51757812 -369.671875 475.75390625 C-394.91435479 453.76472743 -412.19463955 422.56823578 -415.18081665 388.96530151 C-415.46600048 384.24788268 -415.48129646 379.53682637 -415.4375 374.8125 C-415.43412628 374.0986615 -415.43075256 373.384823 -415.42727661 372.64935303 C-415.08460734 322.29729148 -387.95927514 289.62097878 -353.8863436 255.62489426 C-350.88270146 252.62582357 -347.88487741 249.62094592 -344.88626099 246.61685181 C-339.02898275 240.75072845 -333.16636936 234.88996599 -327.30175834 229.03117444 C-322.53300967 224.26696031 -317.76623827 219.50077606 -313.00084114 214.73320961 C-312.32012875 214.05219075 -311.63941635 213.37117189 -310.93807631 212.66951609 C-309.55485431 211.28565459 -308.17163678 209.90178863 -306.78842366 208.51791827 C-293.85041312 195.57421908 -280.90630494 182.63663175 -267.96006698 169.70116232 C-256.86874455 158.61878012 -245.78268446 147.53115652 -234.70043945 136.43969727 C-221.80354415 123.53208383 -208.90339144 110.62774023 -195.99806935 97.72855169 C-194.62048976 96.35160915 -193.24291433 94.97466246 -191.86534309 93.59771156 C-191.18769554 92.92037256 -190.51004799 92.24303356 -189.81186567 91.54516914 C-185.05261245 86.78763778 -180.29567356 82.02780001 -175.53964043 77.26704979 C-169.74046783 71.46225146 -163.93771134 65.66106407 -158.13041835 59.8643892 C-155.17160109 56.91080497 -152.21436235 53.95568721 -149.26148796 50.99616051 C-146.55236982 48.28103182 -143.83858482 45.57065617 -141.1211871 42.86381475 C-139.68704957 41.43292831 -138.25775546 39.99719236 -136.82870859 38.56122178 C-101.03572639 2.98161041 -49.68336376 -14.60413686 0 0 Z " fill="#545965" transform="translate(415,4)"/>
<path d="M0 0 C1.07145264 0.30550781 1.07145264 0.30550781 2.16455078 0.6171875 C35.31728716 10.36666477 64.53371612 33.96697242 81.21630859 64.20458984 C92.03357234 84.69189838 97.43761719 105.84091756 97.375 129 C97.37478851 129.72411072 97.37457703 130.44822144 97.37435913 131.1942749 C97.33954581 143.17170561 96.31264801 154.45336659 93 166 C92.81808105 166.66547852 92.63616211 167.33095703 92.44873047 168.01660156 C82.73783944 202.85084337 57.32976213 226.99742662 32.58211398 251.78533173 C30.60724622 253.76387329 28.63367469 255.74369895 26.66050911 257.72393799 C19.76882008 264.63996896 12.87156778 271.55039969 5.96948242 278.45605469 C-0.45747862 284.88667533 -6.87109888 291.33040168 -13.2790342 297.77997589 C-18.79999669 303.3355499 -24.33046037 308.88154404 -29.86840576 314.4201889 C-33.16856223 317.72113901 -36.4646014 321.02596383 -39.75091743 324.34069824 C-42.8287912 327.44460682 -45.91824231 330.53649108 -49.01721001 333.61933517 C-50.15355541 334.7538565 -51.28560836 335.89269529 -52.41308594 337.03602982 C-53.94775553 338.59096878 -55.49688576 340.12985279 -57.05079651 341.66552734 C-57.91514596 342.53188812 -58.77949541 343.3982489 -59.67003727 344.29086304 C-62 346 -62 346 -64.20096111 345.85672092 C-66.39612246 344.81136239 -67.77268215 343.58763306 -69.48339844 341.85717773 C-70.14378113 341.19656845 -70.80416382 340.53595917 -71.48455811 339.85533142 C-72.18574768 339.13865799 -72.88693726 338.42198456 -73.609375 337.68359375 C-74.33618469 336.95253922 -75.06299438 336.22148468 -75.81182861 335.46827698 C-78.13168401 333.13162843 -80.440892 330.78476516 -82.75 328.4375 C-84.32092443 326.85152964 -85.89253094 325.26623457 -87.46484375 323.68164062 C-91.31784484 319.79556178 -95.16215519 315.90104457 -99 312 C-97.6518461 308.99154948 -96.15929474 306.91676851 -93.8184967 304.60490417 C-92.83641991 303.62737434 -92.83641991 303.62737434 -91.83450317 302.63009644 C-91.11704926 301.92611725 -90.39959534 301.22213806 -89.66040039 300.49682617 C-88.90414871 299.74670761 -88.14789703 298.99658905 -87.36872864 298.22373962 C-85.72627201 296.59558801 -84.08158781 294.96968119 -82.43495369 293.34575462 C-79.8283695 290.77393927 -77.22892798 288.19510461 -74.63145447 285.61408997 C-67.24521258 278.27676333 -59.84797037 270.95060302 -52.44165039 263.63354492 C-47.91157402 259.15707881 -43.39132204 254.67088461 -38.87695122 250.17858315 C-37.15555267 248.46959172 -35.43036947 246.76440361 -33.70134163 245.06313133 C-31.2813435 242.68163195 -28.87397956 240.28800324 -26.46899414 237.89135742 C-25.39584961 236.84449768 -25.39584961 236.84449768 -24.30102539 235.77648926 C-19.89921944 231.35722211 -16.40938945 227.23531999 -15.78515625 220.77734375 C-15.87667969 220.17019531 -15.96820313 219.56304687 -16.0625 218.9375 C-16.13597656 218.32777344 -16.20945312 217.71804687 -16.28515625 217.08984375 C-18.75943247 209.85630399 -25.0299113 204.68725153 -30.29492188 199.44628906 C-31.24508868 198.49340885 -32.19483022 197.54010443 -33.1441803 196.58641052 C-35.71178976 194.00971884 -38.28564231 191.43935087 -40.86097145 188.87037754 C-43.55936461 186.17706304 -46.25285757 183.47885506 -48.94714355 180.78143311 C-53.46947276 176.25547094 -57.99599015 171.73372967 -62.52490234 167.21435547 C-67.7591912 161.99096302 -72.98621852 156.76038695 -78.20955801 151.52604699 C-82.69940127 147.02712745 -87.19313065 142.53211747 -91.69013071 138.04035163 C-94.37394263 135.35965583 -97.0563894 132.67763151 -99.7353363 129.99207306 C-102.25232317 127.46930797 -104.77415408 124.95148749 -107.29980278 122.4373951 C-108.66686444 121.07423737 -110.02900941 119.70615443 -111.39100647 118.3379364 C-112.20689743 117.52768509 -113.02278839 116.71743378 -113.86340332 115.88262939 C-114.56983223 115.17695454 -115.27626114 114.47127968 -116.00409698 113.74422073 C-120.52618402 109.79236641 -124.82342093 109.20894151 -130.72634888 109.42713928 C-134.45140654 110.07899225 -135.64900986 110.89919046 -138.33935547 113.48999023 C-139.20123474 114.31183807 -140.06311401 115.13368591 -140.95111084 115.98043823 C-141.96881766 116.98553269 -142.9849916 117.99218057 -144 119 C-144.58857033 119.57783863 -145.17714066 120.15567726 -145.78354645 120.75102615 C-150.87265469 125.74825421 -155.91057303 130.79575575 -160.9453125 135.84765625 C-162.56747846 137.47169063 -164.18986782 139.09550189 -165.81246948 140.71910095 C-170.05276258 144.96318589 -174.29004219 149.2102668 -178.52667236 153.45800781 C-182.86229746 157.80391921 -187.20080578 162.14695025 -191.5390625 166.49023438 C-200.02884428 174.9906946 -208.51544097 183.49432701 -217 192 C-219.91760886 190.59775317 -221.98897208 189.25393088 -224.26806641 186.94311523 C-224.88195221 186.32585068 -225.49583801 185.70858612 -226.12832642 185.07261658 C-226.77949432 184.40798904 -227.43066223 183.74336151 -228.1015625 183.05859375 C-228.77923676 182.37571793 -229.45691101 181.6928421 -230.15512085 180.98927307 C-232.31655292 178.81004522 -234.47117408 176.62424361 -236.625 174.4375 C-238.78682946 172.2480717 -240.95009169 170.06010899 -243.11630249 167.87501526 C-244.4634863 166.51555439 -245.80798821 165.1534297 -247.14956665 163.78843689 C-247.75714813 163.17432449 -248.36472961 162.5602121 -248.99072266 161.92749023 C-249.7920311 161.11380226 -249.7920311 161.11380226 -250.60952759 160.28367615 C-251.99172435 158.88825494 -251.99172435 158.88825494 -254 158 C-252.42600233 154.20598108 -250.04991351 151.79838884 -247.16395569 148.9099884 C-246.41961884 148.16097158 -246.41961884 148.16097158 -245.66024488 147.39682311 C-243.99705673 145.72566135 -242.32681535 144.06173512 -240.65649414 142.39770508 C-239.46182421 141.20032477 -238.26758011 140.00251947 -237.07373047 138.80432129 C-233.82789371 135.54935703 -230.57574934 132.30076377 -227.32218099 129.05352998 C-223.91169666 125.64811194 -220.5060983 122.23781332 -217.09971619 118.82829285 C-211.37077321 113.09570861 -205.63762181 107.36735853 -199.90209961 101.64135742 C-193.29109619 95.04120252 -186.68727929 88.433923 -180.08722025 81.82282525 C-174.41007505 76.13656823 -168.72899633 70.45426323 -163.04468626 64.7751686 C-159.65472155 61.38830693 -156.26608641 58.00014465 -152.88099861 54.60840797 C-149.69018857 51.41176963 -146.49442824 48.2201602 -143.29497528 45.03217316 C-142.12876021 43.86857718 -140.9641962 42.7033234 -139.80151939 41.53619194 C-102.98697059 4.59375498 -51.91947508 -15.26142883 0 0 Z " fill="#23272B" transform="translate(415,4)"/>
<path d="M0 0 C1.01707031 -0.02835937 2.03414062 -0.05671875 3.08203125 -0.0859375 C10.9415954 1.08063932 16.47174901 8.36327848 21.81713867 13.71411133 C22.77826575 14.66924666 23.73979926 15.62397316 24.70170593 16.57832336 C27.30137688 19.16039764 29.89459437 21.74885924 32.48611999 24.33910584 C34.1075585 25.95911916 35.73041433 27.57769853 37.35378456 29.19577599 C43.02273656 34.84625211 48.68652581 40.50184399 54.34545898 46.16235352 C59.61231465 51.43041148 64.89023224 56.68720296 70.17344493 61.93885213 C74.71746608 66.45669479 79.25371503 70.98224285 83.78402692 75.51383227 C86.48624111 78.21655541 89.19144233 80.91610935 91.90450096 83.60795021 C94.45546694 86.13950612 96.996589 88.68055041 99.53059578 91.22907829 C100.90094849 92.60250741 102.2811609 93.96607697 103.66168213 95.32928467 C112.7137622 104.47396715 112.7137622 104.47396715 113.40234375 111.59765625 C113.31082031 112.20480469 113.21929687 112.81195313 113.125 113.4375 C113.05152344 114.04722656 112.97804688 114.65695313 112.90234375 115.28515625 C110.82734067 121.35142208 106.06826879 125.78237602 101.62794495 130.19525146 C100.97060315 130.85641881 100.31326135 131.51758616 99.6360001 132.19878888 C97.43987873 134.40520011 95.23670592 136.60442851 93.03344727 138.80371094 C91.45437551 140.38713125 89.87572182 141.97096858 88.29745483 143.55519104 C84.01508184 147.8509466 79.72633317 152.1402824 75.4359982 156.42808437 C71.85542518 160.00758763 68.27783317 163.59006297 64.70019192 167.17249608 C55.78042924 176.10398437 46.85439016 185.02916928 37.92555075 193.95158044 C30.17226866 201.69968914 22.42724091 209.45598943 14.68605126 217.21617815 C6.73292591 225.18867271 -1.22588184 233.15545595 -9.19043308 241.11653924 C-13.66018231 245.58447323 -18.12766361 250.05461759 -22.58956718 254.53038788 C-26.78289311 258.73625805 -30.98336704 262.93485411 -35.18950272 267.12791252 C-36.73324684 268.66928426 -38.27442676 270.21322899 -39.8128643 271.75989723 C-41.91037916 273.86782438 -44.0168873 275.96633075 -46.1259613 278.06268311 C-46.73511129 278.67920738 -47.34426128 279.29573165 -47.97187036 279.93093848 C-52.42031819 284.32297758 -56.2245736 286.6268413 -62.625 286.875 C-63.81029297 286.95234375 -63.81029297 286.95234375 -65.01953125 287.03125 C-73.15671849 285.11929552 -79.71285931 276.76576276 -85.39379883 271.06835938 C-86.31673737 270.15053177 -87.2396759 269.23270416 -88.19058228 268.2870636 C-90.70117705 265.78975782 -93.20543515 263.28619128 -95.70812058 260.78096199 C-97.80388731 258.6841197 -99.90263609 256.59027447 -102.00132769 254.4963603 C-106.9520388 249.55670713 -111.89744901 244.61179107 -116.83959961 239.66357422 C-121.92967901 234.5674432 -127.0288961 229.48058758 -132.13261968 224.39812422 C-136.5263264 220.02204492 -140.91419178 215.64016809 -145.29746646 211.2536397 C-147.91037933 208.63891733 -150.52544795 206.02644923 -153.14621925 203.41960144 C-156.06538425 200.51537034 -158.97227419 197.59914466 -161.87817383 194.68164062 C-162.7431398 193.82431839 -163.60810577 192.96699615 -164.49928284 192.08369446 C-169.71336967 186.82342389 -174.2374814 182.1866055 -174.25 174.375 C-174.26933594 173.570625 -174.28867188 172.76625 -174.30859375 171.9375 C-173.07726657 165.57725881 -167.6679995 160.94608709 -163.23948669 156.55474854 C-162.58073376 155.89358119 -161.92198083 155.23241384 -161.24326569 154.55121112 C-159.04247041 152.34479593 -156.83462158 150.14558034 -154.62670898 147.94628906 C-153.04437748 146.36288428 -151.46247912 144.77904656 -149.88098145 143.19480896 C-145.59027 138.89925438 -141.29334139 134.60996903 -136.99513507 130.32191563 C-132.499579 125.83514587 -128.00929857 121.34310209 -123.51832581 116.85174561 C-115.97859442 109.31295041 -108.43502963 101.77801067 -100.88891602 94.24560547 C-93.12421533 86.49500297 -85.36303653 78.7408962 -77.60571289 70.98291016 C-76.88847411 70.26561145 -76.88847411 70.26561145 -76.15674566 69.53382185 C-75.67941227 69.0564481 -75.20207888 68.57907435 -74.71028084 68.08723474 C-66.32353879 59.69983799 -57.9339001 51.31534407 -49.54268074 42.93242645 C-45.96899255 39.36227328 -42.39615887 35.79126814 -38.8239727 32.21961212 C-34.62143138 28.01807339 -30.41635577 23.81908755 -26.20928192 19.62208748 C-24.66322871 18.07896122 -23.11802639 16.53498192 -21.57372475 14.99010277 C-19.47096239 12.88685155 -17.36516393 10.78668891 -15.25852966 8.68731689 C-14.33606615 7.76253048 -14.33606615 7.76253048 -13.39496702 6.81906152 C-8.91763412 2.36731089 -6.39343966 0.08042062 0 0 Z " fill="#FE3DA7" transform="translate(286.8125,112.625)"/>
<path d="M0 0 C6.40245704 5.27849805 12.22539856 11.09077974 18.07592773 16.96240234 C19.18017949 18.06693659 20.28465232 19.17124985 21.389328 20.27536011 C24.37039991 23.25614648 27.34839025 26.23999407 30.32581592 29.22442198 C33.44433816 32.34921842 36.56571459 35.4711612 39.68678284 38.59341431 C45.58885967 44.4985925 51.48838392 50.40631397 57.38698393 56.31496489 C64.10571166 63.04489095 70.82729747 69.77195938 77.54911888 76.49879527 C91.3692505 90.32936421 105.18580834 104.16349826 119 118 C114.7125192 123.11705742 110.22867167 127.92461601 105.51342773 132.64770508 C104.78906525 133.37703247 104.06470276 134.10635986 103.31838989 134.85778809 C100.9428808 137.24779704 98.56358831 139.63398942 96.18359375 142.01953125 C94.52262858 143.68625366 92.86166362 145.35297628 91.20069885 147.0196991 C87.72858334 150.50228689 84.25417177 153.98256717 80.77856445 157.46166992 C76.32414804 161.92159267 71.87909878 166.3907315 67.43614101 170.86206532 C64.01396755 174.30284134 60.58512517 177.73691166 57.15440559 181.16916466 C55.51206669 182.81453108 53.87223027 184.46239933 52.23495293 186.11280251 C49.94936622 188.41541466 47.65453627 190.70840861 45.35717773 192.99926758 C44.68327499 193.6823851 44.00937225 194.36550262 43.31504822 195.06932068 C38.66841245 199.67483248 34.90494193 202.23954991 28.1875 202.5 C27.39730469 202.5515625 26.60710937 202.603125 25.79296875 202.65625 C17.65578151 200.74429552 11.09964069 192.39076276 5.41870117 186.69335938 C4.49576263 185.77553177 3.5728241 184.85770416 2.62191772 183.9120636 C0.11132295 181.41475782 -2.39293515 178.91119128 -4.89562058 176.40596199 C-6.99138731 174.3091197 -9.09013609 172.21527447 -11.18882769 170.1213603 C-16.1395388 165.18170713 -21.08494901 160.23679107 -26.02709961 155.28857422 C-31.11717901 150.1924432 -36.2163961 145.10558758 -41.32011968 140.02312422 C-45.7138264 135.64704492 -50.10169178 131.26516809 -54.48496646 126.8786397 C-57.09787933 124.26391733 -59.71294795 121.65144923 -62.33371925 119.04460144 C-65.25288425 116.14037034 -68.15977419 113.22414466 -71.06567383 110.30664062 C-71.9306398 109.44931839 -72.79560577 108.59199615 -73.68678284 107.70869446 C-78.90086967 102.44842389 -83.4249814 97.8116055 -83.4375 90 C-83.45683594 89.195625 -83.47617188 88.39125 -83.49609375 87.5625 C-82.17156518 80.72084061 -76.03909763 75.76494071 -71.29394531 71.06689453 C-70.13727104 69.90978218 -70.13727104 69.90978218 -68.95722961 68.72929382 C-66.41890878 66.19236121 -63.8735875 63.66257765 -61.328125 61.1328125 C-59.5622061 59.37062552 -57.79672958 57.60799513 -56.03167725 55.84494019 C-51.86703276 51.68713981 -47.69796398 47.53381819 -43.52669883 43.38266075 C-38.30880472 38.18937152 -33.09786108 32.98912516 -27.88671875 27.7890625 C-18.59669588 18.52046478 -9.3005411 9.25804259 0 0 Z " fill="#FE7C80" transform="translate(196,197)"/>
<path d="M0 0 C4.00471791 2.35514395 6.89413059 5.24142449 10.08984375 8.578125 C10.6828125 9.18462891 11.27578125 9.79113281 11.88671875 10.41601562 C13.33640297 11.90077285 14.77660843 13.39477491 16.21484375 14.890625 C21.07794659 13.02468626 24.2288316 8.94237129 27.70507812 5.234375 C31.71324446 1.07851258 34.75028775 -0.88532445 40.65234375 -1.421875 C46.0699454 -0.94664678 49.49329841 0.81989082 53.02734375 4.890625 C56.25152929 9.31236517 56.6651051 12.4874888 56.21484375 17.890625 C53.55875836 23.32381645 50.31707769 27.1789259 45.96484375 31.328125 C45.41054687 31.86888672 44.85625 32.40964844 44.28515625 32.96679688 C42.93523426 34.28180709 41.57600347 35.58725036 40.21484375 36.890625 C41.84005762 41.11618107 45.0105173 43.83744602 48.21484375 46.890625 C55.90279705 54.21593899 55.90279705 54.21593899 56.65234375 60.640625 C56.52142797 65.64347806 54.34117954 69.10244654 51.21484375 72.890625 C47.34497882 76.53285082 43.10238102 76.27851539 38.03125 76.38671875 C31.79927323 75.28899191 27.5707674 70.52101063 23.33984375 66.140625 C22.84226563 65.63402344 22.3446875 65.12742187 21.83203125 64.60546875 C20.62161173 63.37177193 19.41754522 62.13184716 18.21484375 60.890625 C14.2054241 62.47926298 11.62182706 65.32522298 8.71484375 68.390625 C1.93791081 75.53687309 1.93791081 75.53687309 -3.37109375 76.2265625 C-9.32084515 76.30989235 -13.25797714 76.19144515 -17.78515625 71.890625 C-20.96504517 67.5447768 -21.59417567 63.05058447 -21.46484375 57.76953125 C-20.14019885 52.15882269 -15.87915714 48.70503559 -11.78515625 44.890625 C-10.59443254 43.68546827 -9.40634126 42.47769574 -8.22265625 41.265625 C-7.41828125 40.481875 -6.61390625 39.698125 -5.78515625 38.890625 C-7.60691085 34.2820196 -11.2571935 31.34222208 -14.796875 28.04492188 C-18.55385738 24.43398841 -20.41778938 21.58607261 -21.12109375 16.42578125 C-21.21093536 10.73880707 -20.8247408 7.24094682 -16.78515625 2.890625 C-11.53737777 -1.26603122 -6.4472919 -2.56806578 0 0 Z " fill="#23272B" transform="translate(97.78515625,359.109375)"/>
<path d="M0 0 C4.44317092 2.01962314 7.07962031 4.60776512 9.29296875 9.015625 C10.64092705 12.79884498 11.01161793 16.08751741 10 20 C7.22697851 24.41265545 3.91589593 28.06942784 -1 30 C-5.68683808 30.73285105 -9.14366361 30.44402628 -13.375 28.25 C-17.3515796 24.8415032 -19.51997428 22.07107362 -20.34375 16.80078125 C-20.67896585 11.46246887 -20.19888188 8.54523976 -16.625 4.4375 C-11.57531281 -0.72648052 -7.0387537 -0.69690631 0 0 Z " fill="#FBEC49" transform="translate(377,77)"/>
<path d="M0 0 C4.82159389 2.36531021 7.70321747 5.14142156 10 10 C10.93519064 14.88543589 11.14189047 19.09279996 8.53125 23.453125 C5.26956292 27.29528181 2.93969755 29.69135706 -2.26953125 30.23828125 C-8.04295046 30.4067835 -11.57781849 30.1063114 -16 26 C-19.31691148 21.54835564 -20.82954131 17.88058511 -20.58984375 12.28125 C-19.29958096 7.29109459 -15.35393321 3.43955676 -11.0390625 0.80078125 C-7.38923238 -0.63258115 -3.84855201 -0.53545071 0 0 Z " fill="#37E7FB" transform="translate(425,125)"/>
<path d="M0 0 C4.95520521 2.57289501 8.49116963 5.98233926 11 11 C11.56350726 15.61891196 11.4422879 19.09841312 9.375 23.3125 C6.05215511 27.07256133 3.5015961 29.56165386 -1.5859375 30.453125 C-6.61980579 30.75653624 -10.09089369 30.52366712 -14.0625 27.25 C-17.96482241 23.47171229 -19.30852287 20.04203967 -19.4375 14.625 C-19.36368738 10.93436875 -19.17584322 8.44448747 -16.875 5.5 C-11.6586503 0.96404374 -6.89640281 -1.24135251 0 0 Z " fill="#FB7B7F" transform="translate(376,125)"/>
<path d="M0 0 C3.73876489 2.2920772 7.01787421 5.03574841 9 9 C9.52940021 14.31135952 9.66363629 18.67272741 7.25 23.5 C2.91420715 28.31754762 -0.0053536 29.72271793 -6.375 30.3125 C-11.85926861 29.83971822 -14.6953888 27.44565025 -18.3125 23.4375 C-21.23041816 19.22272933 -21.67462894 15.00745703 -21 10 C-16.62297547 1.24595094 -9.47403815 -2.0473557 0 0 Z " fill="#FB3CA6" transform="translate(426,77)"/>
</svg>
