<?xml version="1.0" encoding="UTF-8"?>
<svg version="1.1" xmlns="http://www.w3.org/2000/svg" width="512" height="512">
<path d="M0 0 C142.23 0 284.46 0 431 0 C431 168.96 431 337.92 431 512 C262.04 512 93.08 512 -81 512 C-81 360.22529791 -81 360.22529791 -70 349 C-64.33787225 344.07584355 -58.24869521 340.21880427 -51.6875 336.625 C-43.18006359 331.86485029 -34.81417775 326.90048933 -26.5 321.8125 C-16.18965052 315.50930477 -5.81223721 309.33545197 4.63027954 303.25384521 C14.21127275 297.67256142 23.70538979 291.96826065 33.12231445 286.11254883 C34.00363037 285.56880615 34.88494629 285.02506348 35.79296875 284.46484375 C36.94575317 283.74735962 36.94575317 283.74735962 38.12182617 283.01538086 C40 282 40 282 42 282 C42 220.29 42 158.58 42 95 C40.02 94.01 40.02 94.01 38 93 C36.09639687 91.34530783 34.26074312 89.67572756 32.4375 87.9375 C28.46679961 84.2160785 24.43524832 80.65875935 20.1875 77.25 C8.90803267 68.11281999 3.96821031 61.55010447 0 47 C0 31.49 0 15.98 0 0 Z " fill="#010001" transform="translate(81,0)"/>
<path d="M0 0 C78.21 0 156.42 0 237 0 C237 59.4 237 118.8 237 180 C207.63 180 178.26 180 148 180 C148 172 148 172 149.609375 170.1875 C150.31578125 169.795625 151.0221875 169.40375 151.75 169 C156.28594866 165.97603423 158.6378672 163.34700576 160 158 C160.88599112 150.77706288 161.29923735 143.67179481 156.65625 137.6875 C151.19926473 132.12755274 146.89044068 129.62755225 138.9375 129.3125 C133.41597652 129.53336094 129.80344024 130.50165547 125.453125 133.90625 C124 135 124 135 122 135 C121.31225595 136.32258472 120.65288627 137.65986503 120 139 C119.46375 140.03125 118.9275 141.0625 118.375 142.125 C115.81183147 148.27660447 116.1607302 154.60064111 118.5625 160.75 C121.32972938 166.29427162 125.37294677 169.77031551 130.9375 172.375 C131.618125 172.58125 132.29875 172.7875 133 173 C133 175.31 133 177.62 133 180 C89.11 180 45.22 180 0 180 C0 120.6 0 61.2 0 0 Z " fill="#00D6DE" transform="translate(138,99)"/>
<path d="M0 0 C21.45 0 42.9 0 65 0 C65 159.06 65 318.12 65 482 C16.82 482 -31.36 482 -81 482 C-81.0825 461.74625 -81.165 441.4925 -81.25 420.625 C-81.28641602 414.24236816 -81.32283203 407.85973633 -81.36035156 401.28369141 C-81.37841797 393.45776367 -81.37841797 393.45776367 -81.3817749 389.78793335 C-81.38789586 387.23834436 -81.40191979 384.68876657 -81.42230225 382.13925171 C-81.4517105 378.2653203 -81.45561973 374.39209322 -81.45410156 370.51806641 C-81.468494 369.39237055 -81.48288643 368.26667469 -81.497715 367.10686684 C-81.45733242 359.37519927 -80.4921716 351.95582041 -75.19842911 345.95923805 C-70.27206726 341.30381567 -64.37598423 338.04950335 -58.5 334.75 C-56.36245839 333.52617567 -54.22578599 332.30083231 -52.08984375 331.07421875 C-50.9488623 330.42114746 -49.80788086 329.76807617 -48.63232422 329.09521484 C-42.0677731 325.32146421 -35.5694586 321.43435641 -29.0625 317.5625 C-27.68898659 316.74621991 -26.31545144 315.92997641 -24.94189453 315.11376953 C-15.56172503 309.53705837 -6.20136798 303.92786313 3.15161133 298.30566406 C10.12743735 294.11524259 17.11936285 289.95288914 24.125 285.8125 C25.01977051 285.28350098 25.91454102 284.75450195 26.83642578 284.20947266 C31.53730808 281.43581689 36.25997125 278.70611035 41 276 C41.25711281 249.70506583 41.45101171 223.41032039 41.56993389 197.11438179 C41.6266228 184.90427726 41.7038902 172.69495435 41.82983398 160.48535156 C41.93957174 149.84175396 42.01046331 139.19872246 42.03497344 128.55457485 C42.04929855 122.91969452 42.08289165 117.28643348 42.16303062 111.65207291 C42.23791005 106.34430459 42.26068641 101.03881619 42.24418449 95.73056984 C42.24720144 93.78667477 42.26896205 91.84270054 42.31126022 89.89926338 C42.88572195 79.15677431 42.88572195 79.15677431 38.65174294 69.71004868 C35.88959746 67.15886393 33.12884176 65.07588675 30 63 C28.23788656 61.59842922 26.48604377 60.18373514 24.75 58.75 C23.85667969 58.02296875 22.96335937 57.2959375 22.04296875 56.546875 C18.319636 53.43055542 14.66725622 50.25247718 11.0625 47 C10.42344727 46.44280273 9.78439453 45.88560547 9.12597656 45.31152344 C4.04450066 40.65597496 3.05676713 37.87772605 0 31 C0 20.77 0 10.54 0 0 Z " fill="#5D40B7" transform="translate(348,15)"/>
<path d="M0 0 C77.88 0 155.76 0 236 0 C236 38.61 236 77.22 236 117 C158.12 117 80.24 117 0 117 C0 78.39 0 39.78 0 0 Z " fill="#D8CBBB" transform="translate(16,380)"/>
<path d="M0 0 C14.19 0 28.38 0 43 0 C43 159.06 43 318.12 43 482 C28.81 482 14.62 482 0 482 C0 322.94 0 163.88 0 0 Z " fill="#5A44B8" transform="translate(453,15)"/>
<path d="M0 0 C13.2 0 26.4 0 40 0 C40 159.06 40 318.12 40 482 C26.8 482 13.6 482 0 482 C0 322.94 0 163.88 0 0 Z " fill="#FCD743" transform="translate(413,15)"/>
<path d="M0 0 C3.81487495 0.11530164 7.63023864 0.12330644 11.44658709 0.14445734 C18.61978235 0.19962345 25.78782778 0.34618748 32.95878994 0.52874815 C41.14480791 0.73246476 49.33111973 0.82952529 57.5190556 0.91926599 C74.31284332 1.10563351 91.09956645 1.43464585 107.89003801 1.82509089 C107.89003801 11.39509089 107.89003801 20.96509089 107.89003801 30.82509089 C112.84003801 30.82509089 117.79003801 30.82509089 122.89003801 30.82509089 C122.89003801 21.25509089 122.89003801 11.68509089 122.89003801 1.82509089 C145.33003801 1.82509089 167.77003801 1.82509089 190.89003801 1.82509089 C187.10708331 4.85145465 183.7279414 7.21584536 179.58535051 9.61805964 C178.98431505 9.96838755 178.38327959 10.31871546 177.76403093 10.67965937 C175.84988821 11.7944522 173.93264178 12.90376414 172.01503801 14.01259089 C169.51670594 15.46280574 167.01965778 16.91522143 164.52285051 18.36805964 C163.57918879 18.91653559 163.57918879 18.91653559 162.61646318 19.47609186 C157.58437483 22.40628541 152.58789944 25.39303791 147.59973955 28.3972497 C143.00675628 31.16143644 138.39609819 33.89427367 133.77675676 36.61415339 C132.4127769 37.41876025 131.04884464 38.22344782 129.68495989 39.02821589 C127.6219388 40.24543028 125.55824101 41.46141468 123.49233294 42.6737237 C109.08939889 51.12993418 98.56253202 57.48010287 90.89003801 72.82509089 C13.34003801 72.82509089 -64.20996199 72.82509089 -144.10996199 72.82509089 C-137.35932019 64.94934213 -137.35932019 64.94934213 -132.41855574 62.02040339 C-131.32349714 61.36322321 -130.22843855 60.70604303 -129.10019636 60.02894831 C-127.91612392 59.33570138 -126.73187429 58.642757 -125.54746199 57.95009089 C-124.30661867 57.21193713 -123.06639593 56.4727393 -121.82675886 55.73256159 C-118.58256961 53.800467 -115.32904529 51.88477195 -112.07157087 49.97517633 C-110.14200164 48.84387564 -108.21389597 47.71012192 -106.28623152 46.57557917 C-100.72455042 43.30331245 -95.15807151 40.03938401 -89.58554792 36.7856164 C-84.26056721 33.67600721 -78.94169637 30.55742997 -73.6584754 27.37717104 C-72.10586253 26.44686982 -70.54911074 25.52340122 -68.98629904 24.61033678 C-64.67336871 22.06821913 -60.4923331 19.42438374 -56.40431082 16.53143585 C-37.55777345 3.26196043 -22.86505377 -0.81273277 0 0 Z " fill="#D7CABA" transform="translate(163.10996198654175,292.17490911483765)"/>
<path d="M0 0 C6.6 0 13.2 0 20 0 C20 159.06 20 318.12 20 482 C13.4 482 6.8 482 0 482 C0 322.94 0 163.88 0 0 Z " fill="#F15462" transform="translate(413,15)"/>
<path d="M0 0 C6.6 0 13.2 0 20 0 C20 158.73 20 317.46 20 481 C13.4 481 6.8 481 0 481 C0 322.27 0 163.54 0 0 Z " fill="#01D5DE" transform="translate(453,15)"/>
<path d="M0 0 C77.55 0 155.1 0 235 0 C236.98 3.63 238.96 7.26 241 11 C244.37580272 15.8272035 248.6274486 19.03024168 253.24609375 22.62109375 C256.2484313 25.21460236 258.49476871 27.93145294 261 31 C232.14159347 31.22835625 203.28329391 31.40521452 174.424161 31.51065329 C171.0134854 31.52315966 167.6028116 31.53610295 164.19213867 31.54931641 C163.51316392 31.55193951 162.83418917 31.55456261 162.13463942 31.55726521 C151.15516296 31.6007234 140.17621258 31.67953757 129.19704773 31.77152796 C117.92290982 31.86519868 106.64903371 31.91987216 95.37448722 31.94088495 C89.04503397 31.95390843 82.71677199 31.98445689 76.38770103 32.05730057 C70.42592984 32.12535862 64.46583639 32.14607981 58.50371361 32.13107681 C56.32000091 32.13381994 54.13623008 32.15360699 51.95285416 32.19205475 C33.41758139 32.50234051 33.41758139 32.50234051 26.46540833 26.21810913 C24.95861262 24.49459093 23.46948963 22.75543399 22 21 C20.15591144 19.42148852 18.28370052 17.87474112 16.375 16.375 C12.85629367 13.52267708 9.36244814 10.65213511 5.9375 7.6875 C5.22464844 7.07261719 4.51179688 6.45773438 3.77734375 5.82421875 C2 4 2 4 0 0 Z " fill="#D8CBBB" transform="translate(100,53)"/>
<path d="M0 0 C77.88 0 155.76 0 236 0 C236 7.59 236 15.18 236 23 C158.12 23 80.24 23 0 23 C0 15.41 0 7.82 0 0 Z " fill="#B4E936" transform="translate(97,15)"/>
<path d="M0 0 C15.18 0 30.36 0 46 0 C46 27.72 46 55.44 46 84 C30.82 84 15.64 84 0 84 C0 56.28 0 28.56 0 0 Z " fill="#070604" transform="translate(31,399)"/>
<path d="M0 0 C78.21 0 156.42 0 237 0 C237 59.4 237 118.8 237 180 C207.63 180 178.26 180 148 180 C148 179.67 148 179.34 148 179 C177.04 179 206.08 179 236 179 C236 124.22 236 69.44 236 13 C158.45 13 80.9 13 1 13 C1 67.78 1 122.56 1 179 C44.23 179 87.46 179 132 179 C132 177.02 132 175.04 132 173 C132.33 173 132.66 173 133 173 C133 175.31 133 177.62 133 180 C89.11 180 45.22 180 0 180 C0 120.6 0 61.2 0 0 Z " fill="#00A9CE" transform="translate(138,99)"/>
<path d="M0 0 C77.88 0 155.76 0 236 0 C236 4.29 236 8.58 236 13 C158.12 13 80.24 13 0 13 C0 8.71 0 4.42 0 0 Z " fill="#BDA88F" transform="translate(16,484)"/>
<path d="M0 0 C47.85 0 95.7 0 145 0 C145 4.29 145 8.58 145 13 C97.15 13 49.3 13 0 13 C0 8.71 0 4.42 0 0 Z " fill="#44329B" transform="translate(267,484)"/>
<path d="M0 0 C4.81723508 3.45512033 8.88163257 8.81223181 10.265625 14.625 C11.27080109 22.29463126 9.7906482 28.31607343 5.265625 34.625 C0.1134774 39.65249887 -5.20770361 42.62493751 -12.421875 43.0625 C-19.15373639 42.89194613 -24.89429912 40.53549098 -29.625 35.6875 C-34.19802624 29.82692268 -36.29507292 24.80019444 -36.10546875 17.31640625 C-35.17880023 10.59562085 -32.06060186 5.28107096 -26.734375 1.125 C-17.84387391 -4.72488362 -9.44704025 -5.22855058 0 0 Z " fill="#050404" transform="translate(154.734375,420.375)"/>
<path d="M0 0 C5.43518347 3.73288887 9.6562778 8.92977091 11.74609375 15.19921875 C12.25548925 22.58545357 10.97847187 28.73518374 6.93359375 35.01171875 C1.77481238 40.17050012 -3.66730811 43.21684101 -10.94140625 43.63671875 C-17.45190094 43.49096141 -22.98161903 41.0487703 -27.88671875 36.77734375 C-33.12294114 30.94538348 -34.91250479 24.64164931 -34.66015625 16.9765625 C-33.69773076 10.39690361 -30.41678594 5.80988578 -25.25390625 1.76171875 C-17.18114437 -3.65513448 -8.72941355 -5.00580052 0 0 Z " fill="#050404" transform="translate(220.25390625,419.80078125)"/>
<path d="M0 0 C4.95 0 9.9 0 15 0 C15 21.12 15 42.24 15 64 C10.05 64 5.1 64 0 64 C0 42.88 0 21.76 0 0 Z " fill="#FBFEFE" transform="translate(159,137)"/>
<path d="M0 0 C4.95 0 9.9 0 15 0 C15 17.16 15 34.32 15 52 C10.05 52 5.1 52 0 52 C0 34.84 0 17.68 0 0 Z " fill="#B86F04" transform="translate(46,415)"/>
<path d="M0 0 C10.23 0 20.46 0 31 0 C31 5.28 31 10.56 31 16 C20.77 16 10.54 16 0 16 C0 10.72 0 5.44 0 0 Z " fill="#0E0D0C" transform="translate(92,331)"/>
<path d="M0 0 C10.23 0 20.46 0 31 0 C31 4.95 31 9.9 31 15 C20.77 15 10.54 15 0 15 C0 10.05 0 5.1 0 0 Z " fill="#070706" transform="translate(217,332)"/>
<path d="M0 0 C10.23 0 20.46 0 31 0 C31 4.95 31 9.9 31 15 C20.77 15 10.54 15 0 15 C0 10.05 0 5.1 0 0 Z " fill="#070706" transform="translate(154,332)"/>
<path d="M0 0 C10.23 0 20.46 0 31 0 C31 4.95 31 9.9 31 15 C20.77 15 10.54 15 0 15 C0 10.05 0 5.1 0 0 Z " fill="#060605" transform="translate(184,307)"/>
<path d="M0 0 C9.9 0 19.8 0 30 0 C30 4.95 30 9.9 30 15 C20.1 15 10.2 15 0 15 C0 10.05 0 5.1 0 0 Z " fill="#020202" transform="translate(133,307)"/>
<path d="M0 0 C7.26 0 14.52 0 22 0 C22 4.29 22 8.58 22 13 C14.74 13 7.48 13 0 13 C0 8.71 0 4.42 0 0 Z " fill="#44329B" transform="translate(474,484)"/>
<path d="M0 0 C6.6 0 13.2 0 20 0 C20 4.29 20 8.58 20 13 C13.4 13 6.8 13 0 13 C0 8.71 0 4.42 0 0 Z " fill="#EB1E24" transform="translate(413,484)"/>
<path d="M0 0 C6.6 0 13.2 0 20 0 C20 4.29 20 8.58 20 13 C13.4 13 6.8 13 0 13 C0 8.71 0 4.42 0 0 Z " fill="#F9BC42" transform="translate(433,484)"/>
<path d="M0 0 C5.28 0 10.56 0 16 0 C16 5.28 16 10.56 16 16 C10.72 16 5.44 16 0 16 C0 10.72 0 5.44 0 0 Z " fill="#001415" transform="translate(248,169)"/>
<path d="M0 0 C5.28 0 10.56 0 16 0 C16 4.95 16 9.9 16 15 C10.72 15 5.44 15 0 15 C0 10.05 0 5.1 0 0 Z " fill="#E5FAFB" transform="translate(158,216)"/>
<path d="M0 0 C6.27 0 12.54 0 19 0 C19 3.96 19 7.92 19 12 C12.73 12 6.46 12 0 12 C0 8.04 0 4.08 0 0 Z " fill="#00B2DF" transform="translate(454,484)"/>
<path d="M0 0 C4.95 0 9.9 0 15 0 C15 4.95 15 9.9 15 15 C10.05 15 5.1 15 0 15 C0 10.05 0 5.1 0 0 Z " fill="#000404" transform="translate(279,169)"/>
<path d="M0 0 C4.95 0 9.9 0 15 0 C15 4.95 15 9.9 15 15 C10.05 15 5.1 15 0 15 C0 10.05 0 5.1 0 0 Z " fill="#000404" transform="translate(218,169)"/>
<path d="M0 0 C2.4375 1.5625 2.4375 1.5625 4 4 C4.5625 7.5 4.5625 7.5 4 11 C1.9375 13.5 1.9375 13.5 -1 15 C-4.80284671 15 -7.01930006 14.7968187 -10 12.375 C-11.45635054 8.91616747 -10.91305869 6.58701629 -10 3 C-7.67133148 -1.01048467 -4.26353269 -0.52359173 0 0 Z " fill="#E9515E" transform="translate(280,243)"/>
<path d="M0 0 C2 1 2 1 3 3 C3.39302445 6.09506752 3.62908496 8.04448766 3 11 C0.875 13.5625 0.875 13.5625 -2 15 C-5.99581592 15.08154726 -7.46688828 14.50505321 -10.375 11.75 C-12.16274183 8.72459075 -12.70372686 7.43066845 -12 4 C-8.80294102 -0.92879926 -5.39655285 -0.59961698 0 0 Z " fill="#E8505E" transform="translate(213,433)"/>
<path d="M0 0 C2 1 2 1 3 3 C3.39302445 6.09506752 3.62908496 8.04448766 3 11 C0.875 13.5625 0.875 13.5625 -2 15 C-5.97131876 15.08104732 -7.47755834 14.4688579 -10.4375 11.8125 C-12 9 -12 9 -11.9375 5.875 C-9.85642461 -0.50696454 -6.24254868 -0.91037168 0 0 Z " fill="#E9505E" transform="translate(146,433)"/>
</svg>
